<?xml version="1.0" encoding="utf-8"?>
<!-- Generator: Adobe Illustrator 27.5.0, SVG Export Plug-In . SVG Version: 6.00 Build 0)  -->
<svg version="1.1" id="Layer_1" xmlns="http://www.w3.org/2000/svg" xmlns:xlink="http://www.w3.org/1999/xlink" x="0px" y="0px"
	 viewBox="0 0 512 512" style="enable-background:new 0 0 512 512;" xml:space="preserve">
<style type="text/css">
	.st0{fill:#607A64;}
</style>
<path class="st0" d="M335.9,65.7c-9-10.2-22-16-35.6-16H186L300,177.4l-65.8,74.7l-77-84.9c-9-10-21.8-15.6-35.3-15.6H7.2
	l93.6,103.2L7.2,358h114.6c13.4,0,26.3-5.7,35.3-15.6l77.7-85.7l65.8,74.6L186,459.8h114.3c13.6,0,26.5-5.8,35.6-16L504.2,255
	L335.9,65.7z M411.1,277.6c-16.4,0-29.7-13.3-29.7-29.7c0-16.4,13.3-29.7,29.7-29.7c7.3,0,13.9,2.6,19.1,7L416,240.6l20.7,22.4
	C431.5,271.8,422,277.6,411.1,277.6z"/>
</svg>
